<svg width="320" height="320" viewBox="0 0 320 320" fill="none" xmlns="http://www.w3.org/2000/svg">
  <defs>
    <linearGradient id="leaf" x1="56" y1="44" x2="222" y2="220" gradientUnits="userSpaceOnUse">
      <stop stop-color="#27B05F"/>
      <stop offset="1" stop-color="#178347"/>
    </linearGradient>
    <linearGradient id="sun" x1="151" y1="42" x2="236" y2="132" gradientUnits="userSpaceOnUse">
      <stop stop-color="#FFB347"/>
      <stop offset="1" stop-color="#F28C2B"/>
    </linearGradient>
    <linearGradient id="sea" x1="72" y1="128" x2="232" y2="246" gradientUnits="userSpaceOnUse">
      <stop stop-color="#2C7BE5"/>
      <stop offset="1" stop-color="#1B4F9C"/>
    </linearGradient>
  </defs>
  <rect width="320" height="320" rx="64" fill="white"/>
  <circle cx="160" cy="160" r="122" fill="#F6FBF6"/>
  <path d="M95 200C95 127 151 73 223 73C216 122 196 165 153 213C131 238 110 250 86 256C88 232 90 218 95 200Z" fill="url(#leaf)"/>
  <path d="M185 72C214 73 239 82 256 99C241 111 219 119 197 119C181 119 165 115 150 108C156 94 168 82 185 72Z" fill="url(#sun)"/>
  <path d="M77 176C111 192 142 201 174 203C195 204 215 201 241 192C225 220 195 245 160 255C121 246 90 217 77 176Z" fill="url(#sea)"/>
  <path d="M87 167C115 179 142 186 170 187C196 188 220 184 246 173" stroke="#0E3F2B" stroke-width="10" stroke-linecap="round"/>
  <path d="M146 94C146 121 126 143 101 143C101 117 121 94 146 94Z" fill="#1C9150"/>
  <text x="160" y="285" text-anchor="middle" fill="#0F2D1E" font-family="Arial, Helvetica, sans-serif" font-size="30" font-weight="700">ZORES EXPORT</text>
</svg>
